<svg xmlns="http://www.w3.org/2000/svg" width="382" height="306" viewBox="0 0 382 306" version="1.1">
	<path d="M 189.894 45.688 C 186.468 49.985, 181.191 57.325, 178.166 62 C 175.141 66.675, 172.534 70.670, 172.371 70.879 C 172.209 71.087, 168.796 68.204, 164.788 64.471 C 154.725 55.102, 142.284 46, 139.540 46 C 136.614 46, 132.455 54.376, 126.631 72 L 122.500 84.500 110.500 78.466 C 96.013 71.182, 84.522 67.078, 82.968 68.632 C 81.432 70.168, 79.091 85.578, 78.351 99.037 L 77.716 110.573 70.759 108.807 C 61.908 106.559, 42.932 103.758, 39.401 104.179 C 34.813 104.725, 34.456 106.598, 36.359 120.156 C 47.073 196.495, 94.416 249.475, 166.117 265.362 C 191.747 271.041, 204.253 271.041, 229.883 265.362 C 301.612 249.469, 348.923 196.526, 359.641 120.156 C 361.544 106.598, 361.187 104.725, 356.599 104.179 C 353.103 103.763, 334.516 106.526, 325.389 108.819 L 318.278 110.605 317.621 98.993 C 316.850 85.350, 314.553 70.153, 313.032 68.632 C 311.478 67.078, 299.987 71.182, 285.500 78.466 L 273.500 84.500 269.369 72 C 263.523 54.310, 259.389 46, 256.435 46 C 253.732 46, 241.532 54.956, 231.183 64.536 C 227.191 68.233, 223.802 71.087, 223.654 70.879 C 223.505 70.670, 220.407 66, 216.770 60.500 C 207.785 46.914, 200.863 38.563, 198.274 38.188 C 196.620 37.949, 194.681 39.684, 189.894 45.688 M 190.965 55.128 C 180.844 68.779, 171.893 85.395, 165.718 102 C 153.890 133.803, 152.906 169.156, 162.989 200 C 166.539 210.859, 173.705 226.277, 179.953 236.500 C 185.234 245.140, 196.916 261, 198 261 C 199.084 261, 210.766 245.140, 216.047 236.500 C 245.407 188.462, 247.783 134.625, 222.755 84.500 C 214.772 68.514, 200.571 47, 198 47 C 197.445 47, 194.280 50.657, 190.965 55.128 M 136.806 63.250 C 132.933 73.141, 129 85.371, 129 87.522 C 129 88.243, 132.492 91.280, 136.760 94.271 C 141.028 97.262, 147.047 102.018, 150.135 104.841 L 155.750 109.973 158.472 102.236 C 159.968 97.981, 162.983 90.675, 165.171 86 L 169.150 77.500 162.825 71.607 C 155.923 65.177, 142.118 54, 141.078 54 C 140.720 54, 138.798 58.163, 136.806 63.250 M 248 58.953 C 244.425 61.667, 238.202 66.950, 234.172 70.694 L 226.843 77.500 230.825 86 C 233.015 90.675, 236.044 98.015, 237.555 102.310 L 240.302 110.120 244.401 106.198 C 247.985 102.768, 254.523 97.647, 264.572 90.397 L 267.487 88.294 265.171 80.397 C 262.539 71.426, 255.845 53.995, 255.036 54.010 C 254.741 54.015, 251.575 56.240, 248 58.953 M 86.330 82.750 C 85.873 86.463, 85.535 98.950, 85.578 110.500 C 85.647 129.191, 85.946 132.885, 88.303 144.102 C 98.670 193.430, 126.703 229.347, 172.871 252.452 C 188.103 260.075, 187.802 260.294, 179.384 247.701 C 153.372 208.792, 143.828 165.092, 152.491 124.564 C 154.230 116.425, 154.687 117.244, 143 107.549 C 133.654 99.796, 123.033 92.648, 112 86.685 C 104.011 82.367, 89.675 76, 87.942 76 C 87.511 76, 86.786 79.037, 86.330 82.750 M 295.920 80.854 C 278.487 88.720, 260.857 100.129, 248.211 111.731 L 241.923 117.500 243.454 124.500 C 252.241 164.650, 242.624 208.798, 216.616 247.701 C 208.166 260.341, 207.816 260.121, 223.712 252.145 C 278.245 224.779, 308.499 177.403, 310.690 115.945 C 311.333 97.924, 309.649 75.968, 307.631 76.040 C 307.009 76.063, 301.739 78.229, 295.920 80.854 M 42.457 116.750 C 47.141 155.946, 66.389 196.276, 91.771 220.079 C 110.971 238.084, 132.406 249.785, 159.497 257.047 C 165.549 258.670, 170.950 259.991, 171.500 259.984 C 172.050 259.978, 169.252 258.201, 165.281 256.037 C 122.166 232.533, 94.005 196.945, 83.525 152.717 C 81.396 143.734, 80.409 137.674, 78.429 121.439 L 77.934 117.378 68.717 115.204 C 58.836 112.874, 47.976 111.020, 44.135 111.008 C 41.842 111, 41.791 111.176, 42.457 116.750 M 342 112.115 C 338.975 112.599, 332.352 113.982, 327.283 115.187 L 318.066 117.378 317.571 121.439 C 315.591 137.674, 314.604 143.734, 312.475 152.717 C 301.995 196.945, 273.834 232.533, 230.719 256.037 C 226.748 258.201, 223.950 259.978, 224.500 259.984 C 225.050 259.991, 230.451 258.670, 236.503 257.047 C 263.271 249.872, 284.894 238.193, 303.286 220.977 C 329.587 196.357, 348.789 156.536, 353.543 116.750 L 354.230 111 350.865 111.117 C 349.014 111.181, 345.025 111.630, 342 112.115" stroke="none" fill="#000000" fill-rule="evenodd"/>
</svg>